<svg xmlns="http://www.w3.org/2000/svg" viewBox="0 0 200 200" fill="none">
  <path d="M 105.0 100.0 L 105.5 99.2 L 106.0 98.3 L 106.2 97.2 L 106.3 96.1 L 106.1 94.8 L 105.7 93.6 L 105.1 92.3 L 104.3 91.2 L 103.2 90.1 L 101.9 89.1 L 100.4 88.4 L 98.7 87.8 L 96.8 87.6 L 94.9 87.6 L 92.9 87.9 L 90.9 88.5 L 89.0 89.5 L 87.1 90.8 L 85.4 92.4 L 83.9 94.3 L 82.7 96.5 L 81.8 98.9 L 81.2 101.5 L 81.0 104.2 L 81.2 107.0 L 81.9 109.9 L 82.9 112.7 L 84.4 115.3 L 86.4 117.8 L 88.7 120.1 L 91.4 122.0 L 94.4 123.6 L 97.7 124.8 L 101.2 125.4 L 104.9 125.6 L 108.6 125.3 L 112.3 124.3 L 115.9 122.9 L 119.4 120.9 L 122.6 118.4 L 125.4 115.3 L 127.9 111.9 L 129.8 108.0 L 131.2 103.9 L 132.1 99.5 L 132.3 94.9 L 131.8 90.3 L 130.7 85.7 L 128.9 81.2 L 126.5 76.9 L 123.4 73.0 L 119.7 69.5 L 115.5 66.5 L 110.9 64.1 L 105.8 62.3 L 100.5 61.3 L 95.1 61.0 L 89.5 61.5 L 84.0 62.8 L 78.6 64.9 L 73.6 67.7 L 68.9 71.3 L 64.7 75.6 L 61.1 80.5 L 58.2 85.9 L 56.0 91.8 L 54.7 98.0 L 54.3 104.4 L 54.7 110.8 L 56.1 117.3 L 58.5 123.5 L 61.7 129.5 L 65.7 134.9 L 70.6 139.9 L 76.2 144.1 L 82.3 147.6 L 89.0 150.2 L 96.1 151.8 L 103.4 152.4 L 110.8 152.1 L 118.2 150.6 L 125.3 148.1 L 132.1 144.6 L 138.5 140.1 L 144.2 134.7 L 149.1 128.5 L 153.1 121.6 L 156.2 114.1 L 158.2 106.2 L 159.1 98.0 L 158.9 89.7 L 157.4 81.4 L 154.8 73.3 L 151.1 65.5 L 146.2 58.4 L 140.3 51.9 L 133.5 46.2 L 125.9 41.5 L 117.7 37.9 L 108.9 35.4 L 99.8 34.2 L 90.5 34.3 L 81.3 35.7 L 72.3 38.3 L 63.6 42.3 L 55.5 47.5 L 48.2 53.8 L 41.7 61.2 L 36.3 69.4 L 32.1 78.4 L 29.2 88.0 L 27.6 98.0 L 27.4 108.2 L 28.7 118.4 L 31.4 128.4 L 35.5 138.0 L 41.0 147.0 L 47.7 155.2 L 55.5 162.4 L 64.4 168.6 L 74.1 173.4 L 84.5 176.9 L 95.4 178.9"
        stroke="#393926" stroke-width="14" stroke-linecap="round" stroke-linejoin="round"/>
</svg>
